<svg width="512" height="512" version="1.1" viewBox="0 0 512 512" 
    xmlns="http://www.w3.org/2000/svg">
    <g opacity=".3">
        <g stroke="#555" fill="#555" stroke-width="32" stroke-linejoin="round">
            <path d="M40 60 L472 60 L472 440 L40 440 Z"/>
        </g>
        <g fill="#999" stroke="#999" stroke-width="8" stroke-linejoin="round">
            <path d="M60 110 L20 110 L20 180 L60 180 Z" />
            <path d="M60 322 L20 322 L20 392 L60 392 Z" />
            
        </g>
        <g stroke="#ccc" fill="#ccc" stroke-width="32" stroke-linejoin="round">
            <path d="M60 80 L452 80 L452 420 L60 420 Z"/>        
        </g>
        <g stroke-width="4" stroke-linejoin="round">
            <path d="M80 140 L180 140 L180 200 L80 200 Z" stroke="#aef" fill="#aef"/>
            <path d="M80 220 L120 220 L120 260 L80 260 Z" stroke="#fd5" fill="#fd5"/>
            <path d="M140 220 L180 220 L180 260 L140 260 Z" stroke="#fd5" fill="#fd5"/>
            <path d="M80 280 L120 280 L120 320 L80 320 Z" stroke="#fd5" fill="#fd5"/>
            <path d="M140 280 L180 280 L180 320 L140 320 Z" stroke="#f55" fill="#f55"/>
        </g>
        <g fill="none" stroke="#333" stroke-width="16">
            <circle cx="344" cy="244" r="72"/>
            <path d="M272 244 L416 244"/>
            <path d="M344 172 L344 316"/>

        </g>
        <g fill="#999" stroke="#999" stroke-width="1">
            <circle cx="344" cy="244" r="32"/>
        </g>
    </g>    
</svg>
