<?xml version="1.0" encoding="UTF-8" standalone="no"?>
<svg
   xmlns:dc="http://purl.org/dc/elements/1.1/"
   xmlns:cc="http://creativecommons.org/ns#"
   xmlns:rdf="http://www.w3.org/1999/02/22-rdf-syntax-ns#"
   xmlns:svg="http://www.w3.org/2000/svg"
   xmlns="http://www.w3.org/2000/svg"
   xmlns:xlink="http://www.w3.org/1999/xlink"
   xmlns:sodipodi="http://sodipodi.sourceforge.net/DTD/sodipodi-0.dtd"
   xmlns:inkscape="http://www.inkscape.org/namespaces/inkscape"
   version="1.1"
   id="svg832"
   width="512"
   height="512"
   viewBox="0 0 512 512"
   sodipodi:docname="mascota.svg"
   inkscape:version="1.0.1 (3bc2e813f5, 2020-09-07)">
  <style
     id="style1405"></style>
  <metadata
     id="metadata838">
    <rdf:RDF>
      <cc:Work
         rdf:about="">
        <dc:format>image/svg+xml</dc:format>
        <dc:type
           rdf:resource="http://purl.org/dc/dcmitype/StillImage" />
        <dc:title></dc:title>
      </cc:Work>
    </rdf:RDF>
  </metadata>
  <defs
     id="defs836">
    <inkscape:path-effect
       effect="bspline"
       id="path-effect886"
       is_visible="true"
       lpeversion="1"
       weight="33.333333"
       steps="2"
       helper_size="0"
       apply_no_weight="true"
       apply_with_weight="true"
       only_selected="false" />
  </defs>
  <sodipodi:namedview
     pagecolor="#ffffff"
     bordercolor="#666666"
     borderopacity="1"
     objecttolerance="10"
     gridtolerance="10"
     guidetolerance="10"
     inkscape:pageopacity="0"
     inkscape:pageshadow="2"
     inkscape:window-width="1920"
     inkscape:window-height="1017"
     id="namedview834"
     showgrid="true"
     showguides="false"
     inkscape:zoom="3.1679799"
     inkscape:cx="256"
     inkscape:cy="237.1722"
     inkscape:window-x="-8"
     inkscape:window-y="268"
     inkscape:window-maximized="1"
     inkscape:current-layer="g840"
     inkscape:document-rotation="0">
    <inkscape:grid
       type="xygrid"
       id="grid1407"
       spacingx="8"
       spacingy="8"
       empspacing="4"
       enabled="false" />
  </sodipodi:namedview>
  <g
     inkscape:groupmode="layer"
     inkscape:label="Image"
     id="g840">
    <image
       sodipodi:absref="M:\__PROYECTOS\__PROYECTOS\_JAVAWEB\GestHotel\src\main\resources\static\images\iconos\mascotas_512px.png"
       xlink:href="../iconos/mascotas_512px.png"
       width="488.00003"
       height="480"
       preserveAspectRatio="none"
       style="stroke-width:1.05789;image-rendering:optimizeQuality"
       id="image842"
       x="8.000001"
       y="16" />
  </g>
  <path
     style="font-variation-settings:normal;display:inline;opacity:1;vector-effect:none;fill:#1b1f3e;fill-opacity:1;fill-rule:evenodd;stroke:#000000;stroke-width:0.377953;stroke-linecap:butt;stroke-linejoin:miter;stroke-miterlimit:4;stroke-dasharray:none;stroke-dashoffset:0;stroke-opacity:1;stop-color:#000000;stop-opacity:1"
     id="path852"
     sodipodi:type="arc"
     sodipodi:cx="178.05954"
     sodipodi:cy="279.7666"
     sodipodi:rx="24.60519"
     sodipodi:ry="35.627483"
     sodipodi:start="0.0065511108"
     sodipodi:end="6.2378417"
     sodipodi:open="true"
     sodipodi:arc-type="arc"
     d="m 202.6642,280 a 24.60519,35.627483 0 0 1 -24.44663,35.39335 24.60519,35.627483 0 0 1 -24.75859,-34.93575 24.60519,35.627483 0 0 1 23.80423,-36.29982 24.60519,35.627483 0 0 1 25.37623,33.9939" />
  <path
     style="font-variation-settings:normal;display:inline;opacity:1;vector-effect:none;fill:#d0cfdf;fill-opacity:1;fill-rule:evenodd;stroke:#000000;stroke-width:0.377953;stroke-linecap:butt;stroke-linejoin:miter;stroke-miterlimit:4;stroke-dasharray:none;stroke-dashoffset:0;stroke-opacity:1;stop-color:#000000;stop-opacity:1"
     id="path854"
     sodipodi:type="arc"
     sodipodi:cx="178.18715"
     sodipodi:cy="267.90775"
     sodipodi:rx="8.8853493"
     sodipodi:ry="13.113519"
     sodipodi:start="0.0065511108"
     sodipodi:end="6.2378417"
     sodipodi:open="true"
     sodipodi:arc-type="arc"
     d="m 187.07231,267.99365 a 8.8853493,13.113519 0 0 1 -8.82809,13.02734 8.8853493,13.113519 0 0 1 -8.94075,-12.85891 8.8853493,13.113519 0 0 1 8.59611,-13.36098 8.8853493,13.113519 0 0 1 9.16379,12.51223" />
  <path
     style="display:inline;fill:#9c7036;fill-opacity:1;stroke:#000000;stroke-width:1px;stroke-linecap:butt;stroke-linejoin:miter;stroke-opacity:1"
     d="m 271.55985,207.92019 c 0,0 16.08223,-51.46312 61.8017,-22.05562 0,0 8.5006,1.83797 33.54292,36.52963 0,0 8.50061,11.02781 15.85248,16.77146 0,0 30.55623,32.62394 -2.75695,73.97823 -33.31318,41.3543 -79.26239,17.4607 -79.26239,17.4607 0,0 -34.23217,-14.01451 -37.21887,-62.49093 -2.9867,-48.47642 8.04111,-60.19347 8.04111,-60.19347 z"
     id="path866" />
  <path
     style="font-variation-settings:normal;display:inline;opacity:1;vector-effect:none;fill:#1b1f3e;fill-opacity:1;fill-rule:evenodd;stroke:#000000;stroke-width:0.377953;stroke-linecap:butt;stroke-linejoin:miter;stroke-miterlimit:4;stroke-dasharray:none;stroke-dashoffset:0;stroke-opacity:1;stop-color:#000000;stop-opacity:1"
     id="path858"
     sodipodi:type="arc"
     sodipodi:cx="326.65305"
     sodipodi:cy="279.75623"
     sodipodi:rx="25.738596"
     sodipodi:ry="37.208652"
     sodipodi:start="0.0065511108"
     sodipodi:end="6.2378417"
     sodipodi:open="true"
     sodipodi:arc-type="arc"
     d="m 352.39109,279.99998 a 25.738596,37.208652 0 0 1 -25.57274,36.96413 25.738596,37.208652 0 0 1 -25.89906,-36.48622 25.738596,37.208652 0 0 1 24.90074,-37.91082 25.738596,37.208652 0 0 1 26.54516,35.50256" />
  <path
     style="font-variation-settings:normal;display:inline;opacity:1;vector-effect:none;fill:#d0cfdf;fill-opacity:1;fill-rule:evenodd;stroke:#000000;stroke-width:0.377953;stroke-linecap:butt;stroke-linejoin:miter;stroke-miterlimit:4;stroke-dasharray:none;stroke-dashoffset:0;stroke-opacity:1;stop-color:#000000;stop-opacity:1"
     id="path862"
     sodipodi:type="arc"
     sodipodi:cx="326.08286"
     sodipodi:cy="268.0936"
     sodipodi:rx="9.5764198"
     sodipodi:ry="13.014701"
     sodipodi:start="0.0065511108"
     sodipodi:end="6.2378417"
     sodipodi:open="true"
     sodipodi:arc-type="arc"
     d="m 335.65907,268.17886 a 9.5764198,13.014701 0 0 1 -9.51471,12.92917 9.5764198,13.014701 0 0 1 -9.63612,-12.76201 9.5764198,13.014701 0 0 1 9.26468,-13.26031 9.5764198,13.014701 0 0 1 9.87651,12.41796" />
  <path
     style="fill:#9e7236;stroke:#000000;stroke-width:0.37795276;stroke-linecap:butt;stroke-linejoin:miter;stroke-opacity:1;stroke-miterlimit:4;stroke-dasharray:none;fill-opacity:1"
     d="m 191.60822,63.409915 c 0,0 -58.58525,-17.460701 -109.359127,44.111245 -50.773881,61.57195 -68.234583,113.26481 -68.234583,113.26481 0,0 -16.5417168,53.53084 7.122128,71.68078 0,0 7.581621,8.96009 34.461911,11.71705 0,0 -2.756953,-28.71826 22.744861,-64.55865 l 18.149939,-21.36638 c 0,0 19.960401,-15.6144 16.770911,-35.56731 -3.1895,-19.9529 16.91175,-60.37793 16.91175,-60.37793 0,0 33.13717,-49.157545 61.43221,-58.903615 z"
     id="path874" />
  <path
     style="fill:#9e7236;stroke:#000000;stroke-width:0.37795276;stroke-linecap:butt;stroke-linejoin:miter;stroke-opacity:1;stroke-miterlimit:4;stroke-dasharray:none;fill-opacity:1"
     d="m 402.28413,212.77087 c 50.14924,49.78584 45.78843,91.94028 45.78843,91.94028 25.25632,-3.81571 41.24594,-6.54121 47.24204,-37.79363 5.99611,-31.25243 -17.80661,-75.58726 -17.80661,-75.58726 0,0 -22.34912,-47.24204 -66.86566,-95.029182 -44.51653,-47.787139 -97.39128,-32.342626 -97.39128,-32.342626 0,0 41.42764,11.447109 70.13626,81.583368 0,0 6.72291,22.89422 7.26801,43.06293 0.5451,20.16872 11.62881,24.16612 11.62881,24.16612 z"
     id="path876" />
  <path
     style="fill:none;stroke:#000000;stroke-width:1px;stroke-linecap:butt;stroke-linejoin:miter;stroke-opacity:1"
     d="m 191.60822,63.409915 c 0,0 24.76409,-14.602169 61.95716,-13.949659 37.19306,0.65251 59.68567,14.498196 59.68567,14.498196"
     id="path892" />
  <path
     style="fill:none;stroke:#000000;stroke-width:1px;stroke-linecap:butt;stroke-linejoin:miter;stroke-opacity:1"
     d="m 55.598549,304.1838 c 0,0 -3.658755,33.55536 28.314234,72.18395 31.972987,38.62859 86.261817,35.62705 86.261817,35.62705 0,0 6.5251,0.78301 20.88032,-0.65251 l 2.21853,1.95753 c 0,0 53.50024,-17.23853 54.81084,-28.05793 0,0 3.85684,1.96222 6.4239,0.16879 0,0 15.62483,14.85046 32.58836,19.87256 16.96353,5.02209 22.76684,8.25855 22.76684,8.25855 0,0 1.28343,-1.67403 2.90166,-2.17624 1.61823,-0.50221 37.33092,4.40829 61.60439,-4.96629 0,0 62.49246,-14.46571 73.70312,-101.68811"
     id="path894"
     sodipodi:nodetypes="cscccccscscc" />
</svg>
